<?xml version="1.0" standalone="no"?>
<!DOCTYPE svg PUBLIC "-//W3C//DTD SVG 20010904//EN"
 "http://www.w3.org/TR/2001/REC-SVG-20010904/DTD/svg10.dtd">
<svg version="1.0" xmlns="http://www.w3.org/2000/svg"
 width="151.000000pt" height="151.000000pt" viewBox="0 0 151.000000 151.000000"
 preserveAspectRatio="xMidYMid meet">
<metadata>
Created by potrace 1.14, written by Peter Selinger 2001-2017
</metadata>
<g transform="translate(0.000000,151.000000) scale(0.100000,-0.100000)"
fill="#000000" stroke="none">
<path d="M684 1397 c-4 -12 7 -45 32 -95 35 -69 39 -74 42 -48 4 33 -19 99
-48 136 -17 23 -19 23 -26 7z"/>
<path d="M791 1401 c-13 -8 -12 -35 5 -123 7 -33 16 -34 102 -10 l64 18 -69
55 c-85 69 -86 69 -102 60z"/>
<path d="M730 1386 c0 -7 7 -19 15 -26 13 -11 15 -8 15 14 0 16 -5 26 -15 26
-8 0 -15 -6 -15 -14z"/>
<path d="M603 1311 c-82 -36 -86 -41 -26 -41 34 0 55 5 64 16 11 14 13 14 21
0 10 -17 38 -22 38 -6 0 14 -22 60 -29 59 -3 0 -34 -13 -68 -28z"/>
<path d="M922 1260 c-18 -4 -53 -15 -78 -25 l-44 -17 0 -114 c0 -106 1 -114
18 -105 32 17 70 66 102 131 39 79 66 110 96 110 13 0 25 4 28 9 13 20 -57 27
-122 11z"/>
<path d="M429 1227 c-9 -7 -21 -22 -27 -33 -14 -27 -31 -133 -22 -139 16 -10
78 17 107 47 26 28 83 119 83 133 0 11 -126 3 -141 -8z"/>
<path d="M598 1223 c-39 -47 -99 -146 -95 -158 7 -17 151 -76 189 -77 48 -2
62 22 66 110 4 73 2 80 -23 110 -23 28 -33 32 -74 32 -33 0 -52 -5 -63 -17z"/>
<path d="M1029 1222 c-26 -13 -44 -37 -78 -101 l-43 -84 58 8 c76 9 108 24
112 54 4 23 5 22 42 -14 l38 -37 7 30 c8 38 -9 104 -32 125 -35 31 -68 37
-104 19z"/>
<path d="M414 1041 c-47 -21 -61 -50 -71 -143 -7 -64 18 -148 43 -148 38 0 83
91 105 213 19 100 4 115 -77 78z"/>
<path d="M1085 1005 c-15 -117 8 -218 52 -232 16 -6 27 76 20 141 -6 55 -40
146 -56 146 -5 0 -13 -25 -16 -55z"/>
<path d="M995 1033 c-59 -13 -118 -37 -154 -64 l-41 -29 0 -231 0 -232 59 64
c33 35 66 82 75 104 23 63 136 385 136 390 0 6 -47 5 -75 -2z"/>
<path d="M566 961 c35 -73 45 -75 58 -15 7 30 5 32 -34 48 -22 9 -42 16 -44
16 -2 0 6 -22 20 -49z"/>
<path d="M1165 978 c3 -13 7 -57 8 -98 3 -75 10 -100 27 -100 12 0 -1 149 -17
188 -15 37 -26 43 -18 10z"/>
<path d="M523 881 c3 -49 11 -98 18 -109 11 -17 49 -42 64 -42 2 0 2 30 1 68
-3 56 -9 76 -36 120 -18 28 -37 52 -43 52 -6 0 -8 -33 -4 -89z"/>
<path d="M651 944 c-12 -15 -21 -40 -21 -55 0 -28 13 -39 24 -20 3 5 25 14 50
20 45 11 61 30 51 62 -10 31 -78 26 -104 -7z"/>
<path d="M695 868 c-39 -21 -65 -52 -65 -76 0 -19 4 -23 18 -17 9 4 36 9 59
12 38 5 41 8 45 38 2 18 2 38 0 44 -5 14 -31 14 -57 -1z"/>
<path d="M301 762 c-11 -22 -32 -81 -46 -133 -15 -52 -40 -118 -56 -148 -16
-30 -27 -56 -25 -59 5 -4 108 152 137 208 31 60 43 170 19 170 -5 0 -18 -17
-29 -38z"/>
<path d="M404 732 c-23 -21 -47 -47 -54 -60 l-11 -23 41 23 c46 25 74 59 68
82 -2 10 -15 4 -44 -22z"/>
<path d="M650 740 c-22 -41 -9 -63 43 -76 56 -14 60 -10 55 52 -3 38 -4 39
-45 42 -34 3 -44 -1 -53 -18z"/>
<path d="M1106 733 c13 -53 51 -138 88 -195 20 -32 38 -58 41 -58 9 0 -37 145
-60 188 -25 48 -58 92 -69 92 -4 0 -3 -12 0 -27z"/>
<path d="M1160 751 c0 -4 15 -41 34 -82 18 -41 46 -112 62 -159 21 -60 30 -78
32 -61 8 55 -59 288 -79 276 -4 -3 -14 3 -21 15 -13 20 -28 27 -28 11z"/>
<path d="M1266 653 c17 -54 37 -136 44 -181 13 -82 13 -83 32 -65 19 19 18 22
-23 159 -39 133 -61 184 -77 184 -4 0 6 -44 24 -97z"/>
<path d="M548 653 c-6 -101 7 -147 47 -165 40 -18 46 -3 38 103 -6 87 -8 96
-36 122 -16 15 -33 27 -37 27 -4 0 -10 -39 -12 -87z"/>
<path d="M961 675 c-11 -36 -21 -72 -21 -79 0 -14 37 -29 52 -20 11 7 10 164
-1 164 -4 0 -18 -29 -30 -65z"/>
<path d="M385 658 c-44 -24 -79 -67 -117 -143 -31 -61 -35 -75 -19 -61 25 23
27 16 6 -24 -17 -33 -5 -48 17 -22 23 26 113 162 132 199 17 34 21 63 9 63 -5
0 -17 -6 -28 -12z"/>
<path d="M657 643 c-33 -32 35 -273 77 -273 19 0 30 92 21 176 -6 52 -12 68
-33 84 -25 20 -53 26 -65 13z"/>
<path d="M896 541 c-17 -18 -16 -20 3 -26 31 -10 80 -53 97 -87 9 -16 17 -28
20 -26 9 9 -18 124 -33 141 -21 23 -66 22 -87 -2z"/>
<path d="M519 483 c-11 -29 -13 -297 -3 -340 4 -13 12 -23 20 -23 11 0 14 19
14 88 0 48 5 127 10 175 7 61 7 94 0 107 -15 28 -29 25 -41 -7z"/>
<path d="M850 468 c0 -24 -7 -68 -15 -98 -8 -30 -15 -62 -15 -71 0 -10 24 -32
53 -50 28 -18 69 -46 89 -61 l37 -29 12 43 c32 109 -3 221 -86 276 -65 43 -75
42 -75 -10z"/>
<path d="M812 464 c-19 -13 -22 -24 -21 -87 1 -69 1 -71 14 -42 16 34 39 134
33 141 -2 2 -14 -3 -26 -12z"/>
<path d="M581 420 c-1 -76 94 -300 128 -300 31 0 41 31 41 124 0 84 0 85 -32
107 -18 12 -48 36 -66 53 l-34 31 20 -50 c11 -27 36 -86 56 -130 20 -44 36
-91 35 -105 0 -16 -11 3 -28 50 -16 41 -49 118 -74 170 l-46 95 0 -45z"/>
<path d="M113 385 c-30 -13 -33 -18 -33 -55 l0 -41 31 18 c32 19 69 63 69 82
0 15 -28 13 -67 -4z"/>
<path d="M171 350 c-22 -39 -22 -40 -2 -40 10 0 26 -3 34 -6 17 -6 31 37 22
67 -10 30 -29 22 -54 -21z"/>
<path d="M1371 377 c-7 -9 -22 -17 -34 -19 -18 -2 -22 -10 -22 -43 l0 -40 42
2 c49 2 83 18 83 38 0 8 -13 29 -28 46 -24 27 -29 29 -41 16z"/>
<path d="M24 326 c-10 -8 -16 -17 -13 -21 9 -8 59 16 53 26 -7 13 -17 11 -40
-5z"/>
<path d="M566 294 c-10 -74 -7 -159 6 -172 14 -14 98 -17 98 -3 0 8 -87 212
-94 218 -2 2 -6 -17 -10 -43z"/>
<path d="M1450 332 c0 -10 41 -35 47 -28 9 8 -17 36 -33 36 -8 0 -14 -3 -14
-8z"/>
<path d="M125 287 c-23 -17 -9 -27 40 -29 42 -2 52 6 35 27 -15 19 -50 19 -75
2z"/>
<path d="M37 241 c-31 -53 -14 -53 23 -1 15 22 17 30 8 30 -8 0 -21 -13 -31
-29z"/>
<path d="M790 195 l0 -75 125 0 125 0 0 46 c0 27 -4 43 -10 39 -5 -3 -10 -12
-10 -19 0 -7 -6 -20 -13 -30 -12 -16 -19 -14 -95 39 -45 31 -84 60 -87 65 -4
6 -13 10 -21 10 -11 0 -14 -16 -14 -75z"/>
<path d="M1440 265 c0 -14 31 -65 40 -65 14 0 -13 63 -28 68 -7 2 -12 1 -12
-3z"/>
<path d="M84 214 c-16 -37 -14 -54 3 -32 19 26 33 68 22 68 -5 0 -17 -16 -25
-36z"/>
<path d="M1320 228 c0 -16 5 -28 10 -28 13 0 13 20 0 40 -8 12 -10 9 -10 -12z"/>
<path d="M1360 223 c0 -15 5 -35 10 -43 7 -11 10 -6 10 22 0 20 -4 40 -10 43
-6 4 -10 -6 -10 -22z"/>
<path d="M1400 240 c0 -19 30 -83 36 -78 8 8 -17 88 -28 88 -4 0 -8 -5 -8 -10z"/>
<path d="M136 218 c-3 -13 -5 -32 -5 -43 0 -16 4 -13 14 10 8 17 14 36 15 43
0 21 -17 13 -24 -10z"/>
<path d="M180 213 c0 -22 2 -25 10 -13 13 20 13 40 0 40 -5 0 -10 -12 -10 -27z"/>
</g>
</svg>
