<?xml version="1.0" encoding="UTF-8" standalone="no"?>
<!DOCTYPE svg PUBLIC "-//W3C//DTD SVG 20010904//EN"
              "http://www.w3.org/TR/2001/REC-SVG-20010904/DTD/svg10.dtd">

<svg xmlns="http://www.w3.org/2000/svg"
     width="0.48in" height="0.823333in"
     viewBox="0 0 144 247">
  <path id="Selection"
        fill="none" stroke="black" stroke-width="1"
        d="M 4.00,7.00
           C 4.00,7.00 11.00,7.73 11.00,7.73
             11.00,7.73 21.00,14.80 21.00,14.80
             21.00,14.80 38.00,29.00 38.00,29.00
             38.00,29.00 8.00,36.00 8.00,36.00
             8.00,36.00 4.00,7.00 4.00,7.00 Z
           M 8.00,41.00
           C 8.00,41.00 20.00,36.44 20.00,36.44
             29.77,32.96 46.88,28.82 56.00,35.00
             51.64,35.78 46.68,35.92 43.00,38.51
             33.79,44.99 29.51,60.41 23.65,69.99
             20.65,74.89 12.23,81.64 7.00,84.00
             7.00,84.00 8.00,63.00 8.00,63.00
             8.00,63.00 8.00,41.00 8.00,41.00 Z
           M 28.00,75.00
           C 28.00,75.00 40.00,51.00 40.00,51.00
             41.81,47.83 44.15,42.92 47.18,40.93
             48.73,39.92 51.20,39.30 53.00,38.89
             63.17,36.57 70.61,42.51 73.95,52.00
             75.86,57.69 75.05,66.13 73.95,72.00
             73.95,72.00 60.00,58.00 60.00,58.00
             60.00,58.00 58.07,68.41 58.07,68.41
             58.07,68.41 50.00,71.00 50.00,71.00
             50.00,71.00 28.00,75.00 28.00,75.00 Z
           M 63.00,68.00
           C 66.80,72.78 73.07,86.99 73.91,93.00
             73.91,93.00 73.91,113.00 73.91,113.00
             73.93,118.24 73.74,121.07 70.00,125.00
             70.00,125.00 60.51,110.00 60.51,110.00
             60.51,110.00 60.00,98.00 60.00,98.00
             60.00,98.00 63.00,68.00 63.00,68.00 Z
           M 7.00,179.00
           C 7.00,179.00 7.00,132.00 7.00,132.00
             7.00,132.00 7.96,120.00 7.96,120.00
             7.96,120.00 7.96,109.00 7.96,109.00
             8.04,105.60 8.70,92.95 10.57,90.76
             12.04,89.04 16.89,86.27 19.00,84.95
             35.24,74.79 41.13,77.02 58.00,74.00
             58.00,74.00 42.00,120.00 42.00,120.00
             42.00,120.00 28.93,155.96 28.93,155.96
             28.93,155.96 20.01,165.01 20.01,165.01
             20.01,165.01 7.00,179.00 7.00,179.00 Z
           M 74.00,79.00
           C 81.44,86.77 81.42,95.19 82.09,105.00
             82.09,105.00 83.00,123.00 83.00,123.00
             83.00,123.00 79.02,119.67 79.02,119.67
             79.02,119.67 78.00,103.00 78.00,103.00
             78.00,103.00 74.00,79.00 74.00,79.00 Z
           M 63.00,124.00
           C 75.56,133.00 81.56,150.58 85.71,165.00
             86.99,169.47 89.88,176.57 89.00,181.00
             89.00,181.00 72.98,154.00 72.98,154.00
             72.98,154.00 63.00,124.00 63.00,124.00 Z
           M 75.00,124.00
           C 75.00,124.00 83.00,136.00 83.00,136.00
             83.00,136.00 85.00,130.00 85.00,130.00
             89.62,143.84 96.92,160.54 98.04,175.00
             98.48,179.96 99.92,184.15 98.04,189.00
             98.04,189.00 82.99,146.00 82.99,146.00
             78.99,136.35 75.10,134.68 75.00,124.00 Z
           M 87.00,126.00
           C 95.45,130.64 95.68,135.68 98.34,144.00
             98.34,144.00 106.15,171.00 106.15,171.00
             106.15,171.00 110.93,186.00 110.93,186.00
             110.94,189.87 107.80,191.96 105.00,194.00
             105.00,194.00 101.55,171.00 101.55,171.00
             101.55,171.00 92.54,138.00 92.54,138.00
             92.54,138.00 87.00,126.00 87.00,126.00 Z
           M 42.00,129.00
           C 42.00,129.00 43.09,140.00 43.09,140.00
             43.09,140.00 44.00,160.00 44.00,160.00
             44.00,160.00 33.00,158.00 33.00,158.00
             33.00,158.00 42.00,129.00 42.00,129.00 Z
           M 23.00,168.00
           C 27.30,164.90 30.30,162.14 36.00,163.28
             38.97,163.87 41.54,165.62 43.28,168.09
             46.38,172.51 48.98,189.00 47.00,194.00
             47.00,194.00 39.61,179.38 39.61,179.38
             39.61,179.38 23.00,168.00 23.00,168.00 Z
           M 18.00,172.00
           C 23.72,172.80 25.30,174.59 30.00,177.66
             30.00,177.66 37.79,182.78 37.79,182.78
             42.55,186.85 45.99,197.02 47.71,203.00
             48.49,205.70 50.35,211.45 50.35,214.00
             50.35,214.00 45.00,237.00 45.00,237.00
             39.51,234.40 38.44,231.87 34.00,228.39
             34.00,228.39 20.00,219.81 20.00,219.81
             17.49,218.25 12.65,215.77 11.77,212.82
             11.06,210.43 13.88,200.90 14.63,198.00
             18.96,181.17 18.00,189.40 18.00,172.00 Z
           M 0.00,175.00
           C 0.00,175.00 1.00,175.00 1.00,175.00
             1.00,175.00 0.00,176.00 0.00,176.00
             0.00,176.00 0.00,175.00 0.00,175.00 Z
           M 0.00,178.00
           C 0.00,178.00 1.00,178.00 1.00,178.00
             1.00,178.00 0.00,179.00 0.00,179.00
             0.00,179.00 0.00,178.00 0.00,178.00 Z
           M 13.80,178.00
           C 15.54,182.00 14.42,184.92 13.80,189.00
             11.90,197.51 9.85,204.64 5.00,212.00
             5.00,212.00 6.00,194.00 6.00,194.00
             6.00,194.00 7.02,184.18 7.02,184.18
             7.02,184.18 13.80,178.00 13.80,178.00 Z
           M 102.00,200.00
           C 104.26,200.00 107.85,200.17 109.91,199.41
             112.44,198.47 113.86,196.26 116.09,196.33
             121.08,196.50 127.86,207.10 124.97,211.30
             123.32,213.70 112.08,215.62 109.02,215.81
             107.26,215.92 105.37,215.94 104.17,214.43
             103.03,212.98 102.20,202.46 102.00,200.00 Z
           M 128.00,206.00
           C 132.82,202.03 135.92,206.64 138.00,211.00
             138.00,211.00 128.00,206.00 128.00,206.00 Z
           M 8.00,216.00
           C 8.00,216.00 18.00,223.37 18.00,223.37
             18.00,223.37 27.00,229.00 27.00,229.00
             27.00,229.00 44.00,242.00 44.00,242.00
             44.00,242.00 51.00,227.00 51.00,227.00
             51.00,227.00 53.00,245.00 53.00,245.00
             53.00,245.00 6.00,245.00 6.00,245.00
             6.00,237.18 4.55,222.55 8.00,216.00 Z
           M 126.00,217.00
           C 126.00,217.00 129.00,216.00 129.00,216.00
             131.95,221.18 134.36,224.96 135.00,231.00
             130.00,226.99 128.47,222.74 126.00,217.00 Z
           M 118.00,220.00
           C 118.00,220.00 121.00,219.00 121.00,219.00
             121.00,219.00 127.00,238.00 127.00,238.00
             121.91,233.50 120.17,226.27 118.00,220.00 Z
           M 104.00,221.00
           C 104.00,221.00 106.00,221.00 106.00,221.00
             107.11,224.92 107.53,228.15 106.00,232.00
             106.00,232.00 104.00,221.00 104.00,221.00 Z
           M 112.00,221.00
           C 112.00,221.00 115.00,221.00 115.00,221.00
             115.25,226.35 117.03,231.88 115.00,237.00
             112.17,231.00 112.02,227.49 112.00,221.00 Z" />
</svg>
