<?xml version="1.0" encoding="UTF-8" standalone="no"?>
<!DOCTYPE svg PUBLIC "-//W3C//DTD SVG 20010904//EN"
              "http://www.w3.org/TR/2001/REC-SVG-20010904/DTD/svg10.dtd">

<svg xmlns="http://www.w3.org/2000/svg"
     width="0.466667in" height="0.796667in"
     viewBox="0 0 140 239">
  <path id="Selection"
        fill="none" stroke="black" stroke-width="1"
        d="M 125.00,0.00
           C 134.28,3.00 141.61,23.91 138.00,33.00
             132.10,19.78 125.73,15.83 125.00,0.00 Z
           M 140.00,12.00
           C 135.11,7.95 129.68,1.84 140.00,1.00
             140.00,1.00 140.00,12.00 140.00,12.00 Z
           M 93.00,24.99
           C 97.34,24.03 109.31,18.65 114.00,16.54
             116.35,15.48 121.04,12.77 123.51,14.13
             125.57,15.27 128.95,23.56 130.00,26.00
             130.00,26.00 122.00,25.00 122.00,25.00
             122.00,25.00 122.00,19.00 122.00,19.00
             122.00,19.00 113.00,24.99 113.00,24.99
             109.54,26.66 96.63,26.44 93.00,24.99 Z
           M 139.00,73.00
           C 128.83,75.90 130.18,79.67 119.00,76.00
             111.84,73.65 106.84,72.16 100.00,68.75
             98.11,67.81 94.14,66.05 93.00,64.37
             89.94,59.86 97.43,51.81 99.81,48.00
             102.24,44.10 107.68,34.30 111.18,32.08
             115.03,29.76 126.18,30.15 130.00,32.08
             132.14,33.06 135.76,36.25 137.02,38.28
             139.04,41.55 138.99,47.24 139.00,51.00
             139.00,51.00 139.00,73.00 139.00,73.00 Z
           M 68.00,66.00
           C 68.21,56.30 70.38,37.28 80.01,32.57
             84.87,30.19 98.09,31.00 104.00,31.00
             101.57,39.54 92.45,55.85 85.00,60.60
             80.51,63.46 73.27,64.94 68.00,66.00 Z
           M 68.00,122.00
           C 66.04,117.44 63.56,112.88 62.52,108.00
             60.66,99.33 63.38,84.39 66.16,76.00
             66.74,74.25 67.18,72.86 68.51,71.50
             70.67,69.27 82.98,64.23 86.00,64.77
             88.07,65.13 90.27,66.84 92.00,68.00
             89.51,81.91 88.36,96.24 81.70,109.00
             77.94,116.21 76.70,120.23 68.00,122.00 Z
           M 98.00,73.00
           C 98.00,73.00 115.00,80.00 115.00,80.00
             115.00,80.00 112.00,95.00 112.00,95.00
             103.65,88.09 105.28,85.45 102.44,80.00
             102.44,80.00 98.00,73.00 98.00,73.00 Z
           M 96.00,78.00
           C 96.00,78.00 103.89,90.99 103.89,90.99
             107.33,96.30 110.23,98.15 110.81,105.00
             110.81,105.00 110.18,114.00 110.18,114.00
             110.18,114.00 112.00,126.00 112.00,126.00
             109.24,124.83 102.56,122.32 100.70,120.35
             98.41,117.94 97.44,112.26 96.80,109.00
             94.50,97.25 94.44,89.82 96.00,78.00 Z
           M 116.00,102.00
           C 113.95,94.70 116.43,85.16 124.01,82.01
             127.41,80.59 134.14,81.00 137.80,81.00
             138.06,83.82 138.79,88.50 137.80,90.89
             135.48,95.12 130.00,95.19 126.00,96.71
             126.00,96.71 116.00,102.00 116.00,102.00 Z
           M 116.00,118.00
           C 113.66,109.49 119.43,103.36 127.00,99.78
             129.42,98.89 134.96,97.10 136.99,99.78
             138.92,102.02 137.08,111.51 136.99,115.00
             125.92,114.91 127.04,113.62 116.00,118.00 Z
           M 31.00,182.00
           C 33.03,175.05 37.90,169.70 40.54,163.00
             40.54,163.00 51.72,125.00 51.72,125.00
             54.28,119.03 55.22,114.04 62.00,112.00
             62.00,116.40 62.30,126.20 61.48,130.00
             58.62,143.40 50.59,153.87 43.21,165.00
             39.35,170.82 37.18,178.29 31.00,182.00 Z
           M 81.09,117.00
           C 82.03,119.82 81.81,121.06 81.09,124.00
             79.46,132.02 76.27,131.65 70.00,135.46
             70.00,135.46 61.00,141.00 61.00,141.00
             66.83,127.95 69.84,129.37 74.56,124.74
             74.56,124.74 81.09,117.00 81.09,117.00 Z
           M 138.00,139.00
           C 132.62,138.95 133.13,138.91 128.00,137.74
             125.76,137.24 120.94,137.02 119.57,135.98
             115.73,133.43 117.20,125.24 119.57,122.36
             123.74,117.55 134.51,118.78 136.98,122.36
             138.02,123.97 137.96,126.21 138.00,128.00
             138.00,128.00 138.00,139.00 138.00,139.00 Z
           M 100.00,124.00
           C 104.20,124.80 110.56,127.33 112.83,131.21
             114.63,134.29 114.78,146.83 115.14,151.00
             116.27,159.22 119.05,164.39 115.14,172.00
             112.06,171.44 110.55,171.11 108.00,169.35
             90.90,157.54 104.60,142.93 100.00,124.00 Z
           M 39.00,182.00
           C 48.02,164.93 55.71,142.29 76.00,136.00
             75.97,138.90 76.03,141.15 75.21,144.00
             73.40,150.32 60.91,168.65 56.67,175.00
             53.21,180.17 50.52,185.89 44.00,187.00
             44.00,187.00 50.00,172.00 50.00,172.00
             50.00,172.00 39.00,182.00 39.00,182.00 Z
           M 119.00,142.00
           C 124.31,141.05 131.14,140.59 134.93,145.41
             137.37,148.53 137.95,153.18 138.00,157.00
             138.00,157.00 138.00,192.00 138.00,192.00
             129.07,191.69 127.51,186.79 125.03,179.00
             121.09,166.68 119.00,154.94 119.00,142.00 Z
           M 97.00,165.00
           C 103.40,169.64 103.84,170.55 103.17,178.00
             103.17,178.00 102.17,189.00 102.17,189.00
             102.17,189.00 100.00,239.00 100.00,239.00
             100.00,239.00 95.00,239.00 95.00,239.00
             93.64,231.40 93.01,215.06 93.00,207.00
             93.00,207.00 92.04,194.00 92.04,194.00
             91.66,185.03 93.78,173.37 97.00,165.00 Z
           M 51.00,171.00
           C 51.00,171.00 50.00,171.00 50.00,171.00
             50.00,171.00 51.00,172.00 51.00,172.00
             51.00,172.00 51.00,171.00 51.00,171.00 Z
           M 105.81,175.00
           C 109.58,178.76 112.29,187.00 114.76,192.00
             120.56,203.78 131.07,226.51 133.00,239.00
             133.00,239.00 127.27,237.98 127.27,237.98
             127.27,237.98 119.14,223.00 119.14,223.00
             119.14,223.00 105.81,189.00 105.81,189.00
             105.81,189.00 105.81,175.00 105.81,175.00 Z
           M 114.00,181.00
           C 114.00,181.00 126.01,191.71 126.01,191.71
             128.53,193.57 135.62,198.05 136.98,200.32
             138.13,202.24 137.98,204.83 138.00,207.00
             138.05,215.25 138.14,231.61 135.00,239.00
             135.00,239.00 132.40,225.00 132.40,225.00
             132.40,225.00 114.00,181.00 114.00,181.00 Z
           M 13.80,207.00
           C 13.56,203.65 12.28,197.28 13.80,194.21
             15.09,190.74 23.34,186.63 27.00,186.25
             29.23,186.02 30.89,186.49 33.00,187.00
             28.07,198.06 24.45,201.13 13.80,207.00 Z
           M 35.00,188.00
           C 44.15,191.36 39.72,197.95 39.00,205.00
             39.00,205.00 27.00,203.00 27.00,203.00
             27.00,203.00 35.00,188.00 35.00,188.00 Z
           M 105.00,196.00
           C 105.00,196.00 113.45,216.00 113.45,216.00
             113.45,216.00 123.00,239.00 123.00,239.00
             123.00,239.00 110.00,239.00 110.00,239.00
             101.39,238.85 103.59,235.35 102.72,228.00
             101.63,218.83 103.75,205.44 105.00,196.00 Z
           M 9.00,197.00
           C 9.00,197.00 11.00,201.00 11.00,201.00
             6.20,203.61 5.44,203.86 0.00,204.00
             0.00,204.00 9.00,197.00 9.00,197.00 Z
           M 18.00,210.00
           C 23.38,203.09 29.17,205.60 37.00,207.00
             36.89,208.43 36.98,210.06 36.01,211.26
             32.81,215.21 21.87,211.45 18.00,210.00 Z
           M 10.00,209.00
           C 10.00,209.00 13.00,210.00 13.00,210.00
             11.12,215.91 7.95,220.27 3.00,224.00
             3.72,217.29 6.37,214.45 10.00,209.00 Z
           M 18.00,213.00
           C 21.51,218.26 15.16,228.32 11.00,232.00
             11.56,225.95 15.05,218.34 18.00,213.00 Z
           M 25.00,216.00
           C 25.00,216.00 28.00,216.00 28.00,216.00
             27.73,221.82 26.46,227.22 23.00,232.00
             23.00,232.00 25.00,216.00 25.00,216.00 Z
           M 32.00,216.00
           C 32.00,216.00 35.00,216.00 35.00,216.00
             34.89,220.75 34.83,223.02 32.00,227.00
             32.00,227.00 32.00,216.00 32.00,216.00 Z" />
</svg>
