<?xml version="1.0" encoding="UTF-8" standalone="no"?>
<!DOCTYPE svg PUBLIC "-//W3C//DTD SVG 20010904//EN"
              "http://www.w3.org/TR/2001/REC-SVG-20010904/DTD/svg10.dtd">

<svg xmlns="http://www.w3.org/2000/svg"
     width="0.466667in" height="0.796667in"
     viewBox="0 0 140 239">
  <path id="Selection"
        fill="none" stroke="black" stroke-width="1"
        d="M 2.00,1.00
           C 2.00,1.00 9.00,1.73 9.00,1.73
             9.00,1.73 19.00,8.80 19.00,8.80
             19.00,8.80 36.00,23.00 36.00,23.00
             36.00,23.00 6.00,30.00 6.00,30.00
             6.00,30.00 2.00,1.00 2.00,1.00 Z
           M 6.00,35.00
           C 6.00,35.00 18.00,30.44 18.00,30.44
             27.77,26.96 44.88,22.82 54.00,29.00
             49.64,29.78 44.68,29.92 41.00,32.51
             31.79,38.99 27.51,54.41 21.65,63.99
             18.65,68.89 10.23,75.64 5.00,78.00
             5.00,78.00 6.00,57.00 6.00,57.00
             6.00,57.00 6.00,35.00 6.00,35.00 Z
           M 26.00,69.00
           C 26.00,69.00 38.00,45.00 38.00,45.00
             39.81,41.83 42.15,36.92 45.18,34.93
             46.73,33.92 49.20,33.30 51.00,32.89
             61.17,30.57 68.61,36.51 71.95,46.00
             73.86,51.69 73.05,60.13 71.95,66.00
             71.95,66.00 58.00,52.00 58.00,52.00
             58.00,52.00 56.07,62.41 56.07,62.41
             56.07,62.41 48.00,65.00 48.00,65.00
             48.00,65.00 26.00,69.00 26.00,69.00 Z
           M 61.00,62.00
           C 64.80,66.78 71.07,80.99 71.91,87.00
             71.91,87.00 71.91,107.00 71.91,107.00
             71.93,112.24 71.74,115.07 68.00,119.00
             68.00,119.00 58.51,104.00 58.51,104.00
             58.51,104.00 58.00,92.00 58.00,92.00
             58.00,92.00 61.00,62.00 61.00,62.00 Z
           M 5.00,173.00
           C 5.00,173.00 5.00,126.00 5.00,126.00
             5.00,126.00 5.96,114.00 5.96,114.00
             5.96,114.00 5.96,103.00 5.96,103.00
             6.04,99.60 6.70,86.95 8.57,84.76
             10.04,83.04 14.89,80.27 17.00,78.95
             33.24,68.79 39.13,71.02 56.00,68.00
             56.00,68.00 40.00,114.00 40.00,114.00
             40.00,114.00 26.93,149.96 26.93,149.96
             26.93,149.96 18.01,159.01 18.01,159.01
             18.01,159.01 5.00,173.00 5.00,173.00 Z
           M 72.00,73.00
           C 79.44,80.77 79.42,89.19 80.09,99.00
             80.09,99.00 81.00,117.00 81.00,117.00
             81.00,117.00 77.02,113.67 77.02,113.67
             77.02,113.67 76.00,97.00 76.00,97.00
             76.00,97.00 72.00,73.00 72.00,73.00 Z
           M 61.00,118.00
           C 73.56,127.00 79.56,144.58 83.71,159.00
             84.99,163.47 87.88,170.57 87.00,175.00
             87.00,175.00 70.98,148.00 70.98,148.00
             70.98,148.00 61.00,118.00 61.00,118.00 Z
           M 73.00,118.00
           C 73.00,118.00 81.00,130.00 81.00,130.00
             81.00,130.00 83.00,124.00 83.00,124.00
             87.62,137.84 94.92,154.54 96.04,169.00
             96.48,173.96 97.92,178.15 96.04,183.00
             96.04,183.00 80.99,140.00 80.99,140.00
             76.99,130.35 73.10,128.68 73.00,118.00 Z
           M 85.00,120.00
           C 93.45,124.64 93.68,129.68 96.34,138.00
             96.34,138.00 104.15,165.00 104.15,165.00
             104.15,165.00 108.93,180.00 108.93,180.00
             108.94,183.87 105.80,185.96 103.00,188.00
             103.00,188.00 99.55,165.00 99.55,165.00
             99.55,165.00 90.54,132.00 90.54,132.00
             90.54,132.00 85.00,120.00 85.00,120.00 Z
           M 40.00,123.00
           C 40.00,123.00 41.09,134.00 41.09,134.00
             41.09,134.00 42.00,154.00 42.00,154.00
             42.00,154.00 31.00,152.00 31.00,152.00
             31.00,152.00 40.00,123.00 40.00,123.00 Z
           M 21.00,162.00
           C 25.30,158.90 28.30,156.14 34.00,157.28
             36.97,157.87 39.54,159.62 41.28,162.09
             44.38,166.51 46.98,183.00 45.00,188.00
             45.00,188.00 37.61,173.38 37.61,173.38
             37.61,173.38 21.00,162.00 21.00,162.00 Z
           M 16.00,166.00
           C 21.72,166.80 23.30,168.59 28.00,171.66
             28.00,171.66 35.79,176.78 35.79,176.78
             40.55,180.85 43.99,191.02 45.71,197.00
             46.49,199.70 48.35,205.45 48.35,208.00
             48.35,208.00 43.00,231.00 43.00,231.00
             37.51,228.40 36.44,225.87 32.00,222.39
             32.00,222.39 18.00,213.81 18.00,213.81
             15.49,212.25 10.65,209.77 9.77,206.82
             9.06,204.43 11.88,194.90 12.63,192.00
             16.96,175.17 16.00,183.40 16.00,166.00 Z
           M -2.00,169.00
           C -2.00,169.00 -1.00,169.00 -1.00,169.00
             -1.00,169.00 -2.00,170.00 -2.00,170.00
             -2.00,170.00 -2.00,169.00 -2.00,169.00 Z
           M -2.00,172.00
           C -2.00,172.00 -1.00,172.00 -1.00,172.00
             -1.00,172.00 -2.00,173.00 -2.00,173.00
             -2.00,173.00 -2.00,172.00 -2.00,172.00 Z
           M 11.80,172.00
           C 13.54,176.00 12.42,178.92 11.80,183.00
             9.90,191.51 7.85,198.64 3.00,206.00
             3.00,206.00 4.00,188.00 4.00,188.00
             4.00,188.00 5.02,178.18 5.02,178.18
             5.02,178.18 11.80,172.00 11.80,172.00 Z
           M 100.00,194.00
           C 102.26,194.00 105.85,194.17 107.91,193.41
             110.44,192.47 111.86,190.26 114.09,190.33
             119.08,190.50 125.86,201.10 122.97,205.30
             121.32,207.70 110.08,209.62 107.02,209.81
             105.26,209.92 103.37,209.94 102.17,208.43
             101.03,206.98 100.20,196.46 100.00,194.00 Z
           M 126.00,200.00
           C 130.82,196.03 133.92,200.64 136.00,205.00
             136.00,205.00 126.00,200.00 126.00,200.00 Z
           M 6.00,210.00
           C 6.00,210.00 16.00,217.37 16.00,217.37
             16.00,217.37 25.00,223.00 25.00,223.00
             25.00,223.00 42.00,236.00 42.00,236.00
             42.00,236.00 49.00,221.00 49.00,221.00
             49.00,221.00 51.00,239.00 51.00,239.00
             51.00,239.00 4.00,239.00 4.00,239.00
             4.00,231.18 2.55,216.55 6.00,210.00 Z
           M 124.00,211.00
           C 124.00,211.00 127.00,210.00 127.00,210.00
             129.95,215.18 132.36,218.96 133.00,225.00
             128.00,220.99 126.47,216.74 124.00,211.00 Z
           M 116.00,214.00
           C 116.00,214.00 119.00,213.00 119.00,213.00
             119.00,213.00 125.00,232.00 125.00,232.00
             119.91,227.50 118.17,220.27 116.00,214.00 Z
           M 102.00,215.00
           C 102.00,215.00 104.00,215.00 104.00,215.00
             105.11,218.92 105.53,222.15 104.00,226.00
             104.00,226.00 102.00,215.00 102.00,215.00 Z
           M 110.00,215.00
           C 110.00,215.00 113.00,215.00 113.00,215.00
             113.25,220.35 115.03,225.88 113.00,231.00
             110.17,225.00 110.02,221.49 110.00,215.00 Z" />
</svg>
