<?xml version="1.0" encoding="UTF-8" standalone="no"?>
<!DOCTYPE svg PUBLIC "-//W3C//DTD SVG 20010904//EN"
              "http://www.w3.org/TR/2001/REC-SVG-20010904/DTD/svg10.dtd">

<svg xmlns="http://www.w3.org/2000/svg"
     width="4.75333in" height="0.296667in"
     viewBox="0 0 1426 89">
  <path id="Selection"
        fill="#A82515" stroke-width="1"
        d="M 789.00,1.46
           C 804.33,-0.66 819.39,1.71 830.56,13.29
             849.72,33.14 845.05,70.82 820.00,83.63
             810.61,88.43 805.11,88.12 795.00,88.00
             760.79,87.59 744.69,47.17 761.47,20.00
             767.77,9.78 777.52,4.02 789.00,1.46 Z
           M 1342.00,15.00
           C 1339.85,16.52 1335.54,20.04 1333.00,20.18
             1329.40,20.39 1326.85,16.43 1321.00,13.95
             1312.30,10.26 1302.17,12.41 1295.00,18.33
             1273.81,35.82 1279.36,71.41 1308.00,76.54
             1313.61,77.54 1320.22,76.31 1325.00,73.15
             1327.52,71.48 1331.27,67.31 1334.00,67.02
             1337.82,66.62 1344.15,71.85 1342.12,75.96
             1340.45,79.35 1333.48,83.47 1330.00,84.91
             1318.79,89.54 1302.87,89.45 1292.00,83.87
             1270.55,72.85 1263.36,45.29 1273.32,24.00
             1278.70,12.51 1290.31,3.17 1303.00,1.15
             1303.00,1.15 1316.00,1.15 1316.00,1.15
             1325.85,1.12 1337.98,5.22 1342.00,15.00 Z
           M 0.00,3.00
           C 0.00,3.00 96.00,3.00 96.00,3.00
             96.00,3.00 96.00,23.00 96.00,23.00
             96.00,23.00 59.00,23.00 59.00,23.00
             59.00,23.00 59.00,86.00 59.00,86.00
             59.00,86.00 33.00,86.00 33.00,86.00
             33.00,86.00 33.00,23.00 33.00,23.00
             33.00,23.00 0.00,23.00 0.00,23.00
             0.00,23.00 0.00,3.00 0.00,3.00 Z
           M 104.00,3.00
           C 104.00,3.00 130.00,3.00 130.00,3.00
             130.00,3.00 130.00,86.00 130.00,86.00
             130.00,86.00 104.00,86.00 104.00,86.00
             104.00,86.00 104.00,3.00 104.00,3.00 Z
           M 138.00,3.00
           C 138.00,3.00 237.00,3.00 237.00,3.00
             237.00,3.00 237.00,23.00 237.00,23.00
             237.00,23.00 200.00,23.00 200.00,23.00
             200.00,23.00 200.00,86.00 200.00,86.00
             200.00,86.00 174.00,86.00 174.00,86.00
             174.00,86.00 174.00,23.00 174.00,23.00
             174.00,23.00 138.00,23.00 138.00,23.00
             138.00,23.00 138.00,3.00 138.00,3.00 Z
           M 245.00,3.00
           C 245.00,3.00 271.00,3.00 271.00,3.00
             271.00,3.00 271.00,86.00 271.00,86.00
             271.00,86.00 245.00,86.00 245.00,86.00
             245.00,86.00 245.00,3.00 245.00,3.00 Z
           M 286.00,3.00
           C 286.00,3.00 320.00,3.00 320.00,3.00
             320.00,3.00 326.71,3.57 326.71,3.57
             326.71,3.57 340.21,19.00 340.21,19.00
             340.21,19.00 376.00,64.00 376.00,64.00
             376.00,64.00 375.00,3.00 375.00,3.00
             375.00,3.00 399.00,3.00 399.00,3.00
             399.00,3.00 399.00,86.00 399.00,86.00
             399.00,86.00 366.00,86.00 366.00,86.00
             363.98,86.00 360.89,86.12 359.04,85.40
             354.97,83.84 348.17,73.78 345.21,70.00
             345.21,70.00 310.00,25.00 310.00,25.00
             311.98,40.05 311.00,69.48 311.00,86.00
             311.00,86.00 286.00,86.00 286.00,86.00
             286.00,86.00 286.00,3.00 286.00,3.00 Z
           M 430.00,3.00
           C 430.00,3.00 457.00,3.00 457.00,3.00
             464.32,3.00 470.40,2.45 476.99,6.48
             490.19,14.56 490.19,37.44 476.99,45.52
             468.65,50.62 451.93,49.00 442.00,49.00
             442.00,49.00 442.00,86.00 442.00,86.00
             442.00,86.00 430.00,86.00 430.00,86.00
             430.00,86.00 430.00,3.00 430.00,3.00 Z
           M 512.00,3.00
           C 512.00,3.00 567.00,3.00 567.00,3.00
             567.00,3.00 567.00,14.00 567.00,14.00
             567.00,14.00 524.00,14.00 524.00,14.00
             524.00,14.00 524.00,38.00 524.00,38.00
             524.00,38.00 564.00,38.00 564.00,38.00
             564.00,38.00 564.00,49.00 564.00,49.00
             564.00,49.00 524.00,49.00 524.00,49.00
             524.00,49.00 524.00,75.00 524.00,75.00
             524.00,75.00 569.00,75.00 569.00,75.00
             569.00,75.00 569.00,86.00 569.00,86.00
             569.00,86.00 512.00,86.00 512.00,86.00
             512.00,86.00 512.00,3.00 512.00,3.00 Z
           M 596.00,3.00
           C 596.00,3.00 627.00,3.00 627.00,3.00
             633.88,3.01 639.21,3.45 644.96,7.79
             656.98,16.86 656.96,44.24 633.00,48.00
             633.00,48.00 656.00,86.00 656.00,86.00
             652.08,86.00 643.49,86.83 640.53,84.40
             638.64,82.85 636.32,78.27 634.99,76.00
             634.99,76.00 625.15,59.00 625.15,59.00
             623.69,56.44 621.25,51.47 618.79,50.02
             616.41,48.62 610.86,49.00 608.00,49.00
             608.00,49.00 608.00,86.00 608.00,86.00
             608.00,86.00 596.00,86.00 596.00,86.00
             596.00,86.00 596.00,3.00 596.00,3.00 Z
           M 680.00,3.00
           C 680.00,3.00 733.00,3.00 733.00,3.00
             733.00,3.00 733.00,14.00 733.00,14.00
             733.00,14.00 692.00,14.00 692.00,14.00
             692.00,14.00 692.00,39.00 692.00,39.00
             692.00,39.00 730.00,39.00 730.00,39.00
             730.00,39.00 730.00,50.00 730.00,50.00
             730.00,50.00 692.00,50.00 692.00,50.00
             692.00,50.00 692.00,86.00 692.00,86.00
             692.00,86.00 680.00,86.00 680.00,86.00
             680.00,86.00 680.00,3.00 680.00,3.00 Z
           M 870.00,3.00
           C 870.00,3.00 901.00,3.00 901.00,3.00
             907.88,3.01 913.21,3.45 918.96,7.79
             930.98,16.86 930.96,44.24 907.00,48.00
             907.00,48.00 930.00,86.00 930.00,86.00
             926.08,86.00 917.49,86.83 914.53,84.40
             912.64,82.85 910.32,78.27 908.99,76.00
             908.99,76.00 899.15,59.00 899.15,59.00
             897.69,56.44 895.25,51.47 892.79,50.02
             890.41,48.62 884.86,49.00 882.00,49.00
             882.00,49.00 882.00,86.00 882.00,86.00
             882.00,86.00 870.00,86.00 870.00,86.00
             870.00,86.00 870.00,3.00 870.00,3.00 Z
           M 953.00,3.00
           C 953.00,3.00 963.00,3.00 963.00,3.00
             973.24,3.02 971.62,3.68 978.15,19.00
             978.15,19.00 997.00,64.00 997.00,64.00
             997.00,64.00 1015.99,19.00 1015.99,19.00
             1022.07,4.26 1020.83,3.06 1030.00,3.00
             1030.00,3.00 1041.00,3.00 1041.00,3.00
             1041.00,3.00 1041.00,86.00 1041.00,86.00
             1041.00,86.00 1028.00,86.00 1028.00,86.00
             1028.00,86.00 1028.00,45.00 1028.00,45.00
             1028.00,45.00 1027.00,22.00 1027.00,22.00
             1027.00,22.00 1020.80,39.00 1020.80,39.00
             1020.80,39.00 1002.00,86.00 1002.00,86.00
             1002.00,86.00 992.00,86.00 992.00,86.00
             992.00,86.00 982.60,62.00 982.60,62.00
             982.60,62.00 966.00,22.00 966.00,22.00
             966.00,22.00 966.00,86.00 966.00,86.00
             966.00,86.00 953.00,86.00 953.00,86.00
             953.00,86.00 953.00,3.00 953.00,3.00 Z
           M 1063.00,87.00
           C 1063.00,87.00 1071.58,65.00 1071.58,65.00
             1071.58,65.00 1090.58,22.00 1090.58,22.00
             1090.58,22.00 1098.81,4.60 1098.81,4.60
             1098.81,4.60 1103.02,3.06 1103.02,3.06
             1103.02,3.06 1109.61,4.02 1109.61,4.02
             1109.61,4.02 1118.58,22.00 1118.58,22.00
             1118.58,22.00 1137.00,65.00 1137.00,65.00
             1137.00,65.00 1146.00,87.00 1146.00,87.00
             1142.47,87.00 1134.24,87.79 1131.70,85.40
             1128.55,82.45 1126.14,69.65 1121.78,67.02
             1119.89,65.89 1117.14,66.02 1115.00,66.00
             1115.00,66.00 1094.00,66.00 1094.00,66.00
             1091.70,66.00 1088.26,65.79 1086.27,67.02
             1081.98,69.69 1079.71,83.48 1076.30,86.01
             1074.24,87.54 1065.86,87.00 1063.00,87.00 Z
           M 1168.00,3.00
           C 1168.00,3.00 1176.00,3.00 1176.00,3.00
             1186.69,3.02 1184.43,3.96 1195.14,19.00
             1195.14,19.00 1229.00,69.00 1229.00,69.00
             1229.00,69.00 1229.00,3.00 1229.00,3.00
             1229.00,3.00 1241.00,3.00 1241.00,3.00
             1241.00,3.00 1241.00,86.00 1241.00,86.00
             1241.00,86.00 1233.00,86.00 1233.00,86.00
             1231.09,86.00 1227.91,86.12 1226.18,85.40
             1222.64,83.92 1216.10,72.65 1213.67,69.00
             1213.67,69.00 1180.00,19.00 1180.00,19.00
             1180.00,19.00 1180.00,86.00 1180.00,86.00
             1180.00,86.00 1168.00,86.00 1168.00,86.00
             1168.00,86.00 1168.00,3.00 1168.00,3.00 Z
           M 1369.00,3.00
           C 1369.00,3.00 1424.00,3.00 1424.00,3.00
             1424.00,3.00 1424.00,14.00 1424.00,14.00
             1424.00,14.00 1381.00,14.00 1381.00,14.00
             1381.00,14.00 1381.00,38.00 1381.00,38.00
             1381.00,38.00 1421.00,38.00 1421.00,38.00
             1421.00,38.00 1421.00,49.00 1421.00,49.00
             1421.00,49.00 1381.00,49.00 1381.00,49.00
             1381.00,49.00 1381.00,75.00 1381.00,75.00
             1381.00,75.00 1426.00,75.00 1426.00,75.00
             1426.00,75.00 1426.00,86.00 1426.00,86.00
             1426.00,86.00 1369.00,86.00 1369.00,86.00
             1369.00,86.00 1369.00,3.00 1369.00,3.00 Z
           M 795.00,12.29
           C 784.35,14.08 776.35,19.09 771.38,29.00
             761.38,48.93 773.40,76.01 797.00,76.96
             834.72,78.48 839.98,24.04 809.00,13.75
             803.87,12.04 800.33,11.79 795.00,12.29 Z
           M 442.00,39.00
           C 449.48,39.00 462.59,39.95 468.89,35.91
             475.44,31.72 475.46,20.28 468.89,16.09
             462.83,12.22 449.22,13.00 442.00,13.00
             442.00,13.00 442.00,39.00 442.00,39.00 Z
           M 608.00,39.00
           C 615.48,39.00 628.59,39.95 634.89,35.91
             641.44,31.72 641.46,20.28 634.89,16.09
             628.83,12.22 615.22,13.00 608.00,13.00
             608.00,13.00 608.00,39.00 608.00,39.00 Z
           M 882.00,39.00
           C 889.48,39.00 902.59,39.95 908.89,35.91
             915.44,31.72 915.46,20.28 908.89,16.09
             902.83,12.22 889.22,13.00 882.00,13.00
             882.00,13.00 882.00,39.00 882.00,39.00 Z
           M 1105.00,20.00
           C 1105.00,20.00 1098.72,32.00 1098.72,32.00
             1098.72,32.00 1089.00,56.00 1089.00,56.00
             1089.00,56.00 1119.00,56.00 1119.00,56.00
             1119.00,56.00 1105.00,20.00 1105.00,20.00 Z" />
</svg>
