<?xml version="1.0" encoding="UTF-8" standalone="no"?>
<!DOCTYPE svg PUBLIC "-//W3C//DTD SVG 20010904//EN"
              "http://www.w3.org/TR/2001/REC-SVG-20010904/DTD/svg10.dtd">

<svg xmlns="http://www.w3.org/2000/svg"
     width="0.276667in" height="1.33in"
     viewBox="0 0 83 399">
  <path id="Selection"
        fill="none" stroke="black" stroke-width="1"
        d="M 0.00,0.00
           C 0.00,0.00 83.00,0.00 83.00,0.00
             83.00,0.00 83.00,33.00 83.00,33.00
             83.00,35.02 83.12,38.11 82.40,39.96
             80.84,44.03 70.78,50.83 67.00,53.79
             67.00,53.79 22.00,89.00 22.00,89.00
             37.05,87.02 66.48,88.00 83.00,88.00
             83.00,88.00 83.00,113.00 83.00,113.00
             83.00,113.00 0.00,113.00 0.00,113.00
             0.00,113.00 0.00,79.00 0.00,79.00
             0.00,79.00 0.57,72.29 0.57,72.29
             0.57,72.29 16.00,58.79 16.00,58.79
             16.00,58.79 61.00,23.00 61.00,23.00
             61.00,23.00 0.00,24.00 0.00,24.00
             0.00,24.00 0.00,0.00 0.00,0.00 Z
           M 0.00,128.00
           C 0.00,128.00 83.00,128.00 83.00,128.00
             83.00,128.00 83.00,154.00 83.00,154.00
             83.00,154.00 0.00,154.00 0.00,154.00
             0.00,154.00 0.00,128.00 0.00,128.00 Z
           M 0.00,162.00
           C 0.00,162.00 20.00,162.00 20.00,162.00
             20.00,162.00 20.00,199.00 20.00,199.00
             20.00,199.00 83.00,199.00 83.00,199.00
             83.00,199.00 83.00,225.00 83.00,225.00
             83.00,225.00 20.00,225.00 20.00,225.00
             20.00,225.00 20.00,261.00 20.00,261.00
             20.00,261.00 0.00,261.00 0.00,261.00
             0.00,261.00 0.00,162.00 0.00,162.00 Z
           M 0.00,269.00
           C 0.00,269.00 83.00,269.00 83.00,269.00
             83.00,269.00 83.00,295.00 83.00,295.00
             83.00,295.00 0.00,295.00 0.00,295.00
             0.00,295.00 0.00,269.00 0.00,269.00 Z
           M 0.00,303.00
           C 0.00,303.00 20.00,303.00 20.00,303.00
             20.00,303.00 20.00,340.00 20.00,340.00
             20.00,340.00 83.00,340.00 83.00,340.00
             83.00,340.00 83.00,366.00 83.00,366.00
             83.00,366.00 20.00,366.00 20.00,366.00
             20.00,366.00 20.00,399.00 20.00,399.00
             20.00,399.00 0.00,399.00 0.00,399.00
             0.00,399.00 0.00,303.00 0.00,303.00 Z" />
</svg>
